<svg width="13" height="13" viewBox="0 0 13 13" fill="none" xmlns="http://www.w3.org/2000/svg">
<path d="M6.5 13C10.0899 13 13 10.0899 13 6.5C13 2.91015 10.0899 0 6.5 0C2.91015 0 0 2.91015 0 6.5C0 10.0899 2.91015 13 6.5 13Z" fill="#F0F0F0"/>
<path d="M1.34369 2.54199C0.83311 3.20629 0.448112 3.97194 0.223938 4.80371H3.60541L1.34369 2.54199Z" fill="#0052B4"/>
<path d="M12.7763 4.80381C12.5521 3.97206 12.1671 3.20641 11.6565 2.54211L9.39484 4.80381H12.7763Z" fill="#0052B4"/>
<path d="M0.223938 8.19543C0.448137 9.02718 0.833136 9.79284 1.34369 10.4571L3.60534 8.19543H0.223938Z" fill="#0052B4"/>
<path d="M10.4571 1.34317C9.79284 0.832586 9.02721 0.447588 8.19543 0.223389V3.60484L10.4571 1.34317Z" fill="#0052B4"/>
<path d="M2.54254 11.6553C3.20684 12.1659 3.97249 12.5509 4.80424 12.7751V9.39368L2.54254 11.6553Z" fill="#0052B4"/>
<path d="M4.80421 0.223389C3.97247 0.447588 3.20681 0.832586 2.54254 1.34314L4.80421 3.60481V0.223389Z" fill="#0052B4"/>
<path d="M8.19543 12.7751C9.02718 12.5509 9.79284 12.1659 10.4571 11.6553L8.19543 9.39368V12.7751Z" fill="#0052B4"/>
<path d="M9.39484 8.19543L11.6565 10.4571C12.1671 9.79286 12.5521 9.02718 12.7763 8.19543H9.39484Z" fill="#0052B4"/>
<path d="M12.945 5.65218H7.34787H7.34784V0.0550215C7.0703 0.0188906 6.78735 0 6.5 0C6.2126 0 5.9297 0.0188906 5.65218 0.0550215V5.65213V5.65216H0.0550215C0.0188906 5.9297 0 6.21265 0 6.5C0 6.7874 0.0188906 7.0703 0.0550215 7.34782H5.65213H5.65216V12.945C5.9297 12.9811 6.2126 13 6.5 13C6.78735 13 7.0703 12.9811 7.34782 12.945V7.34787V7.34784H12.945C12.9811 7.0703 13 6.7874 13 6.5C13 6.21265 12.9811 5.9297 12.945 5.65218Z" fill="#D80027"/>
<path d="M8.19568 8.19607L11.0962 11.0966C11.2296 10.9632 11.3569 10.8238 11.4783 10.6793L8.99503 8.19604H8.19568V8.19607Z" fill="#D80027"/>
<path d="M4.80436 8.19604H4.80431L1.90381 11.0965C2.03716 11.2299 2.17658 11.3572 2.3211 11.4786L4.80436 8.99532V8.19604Z" fill="#D80027"/>
<path d="M4.80427 4.80416V4.80411L1.90375 1.90356C1.77034 2.03692 1.64309 2.17634 1.52167 2.32086L4.00495 4.80414H4.80427V4.80416Z" fill="#D80027"/>
<path d="M8.19568 4.80472L11.0962 1.90415C10.9629 1.77075 10.8235 1.64349 10.6789 1.52209L8.19568 4.00537V4.80472V4.80472Z" fill="#D80027"/>
</svg>
