<svg width="18" height="18" viewBox="0 0 18 18" fill="none" xmlns="http://www.w3.org/2000/svg">
<path d="M15.7692 4.69226H2.23077C1.55103 4.69226 1 5.24329 1 5.92303V15.7692C1 16.4489 1.55103 17 2.23077 17H15.7692C16.449 17 17 16.4489 17 15.7692V5.92303C17 5.24329 16.449 4.69226 15.7692 4.69226Z" stroke="#344054" stroke-width="1.5" stroke-linecap="round" stroke-linejoin="round"/>
<path d="M6.53845 1H11.4615C11.7879 1 12.101 1.12967 12.3318 1.36048C12.5626 1.5913 12.6923 1.90435 12.6923 2.23077V4.69231H5.30768V2.23077C5.30768 1.90435 5.43735 1.5913 5.66816 1.36048C5.89898 1.12967 6.21203 1 6.53845 1Z" stroke="#344054" stroke-width="1.5" stroke-linecap="round" stroke-linejoin="round"/>
<path d="M4.69232 9H13.3077" stroke="#344054" stroke-width="1.5" stroke-linecap="round" stroke-linejoin="round"/>
<path d="M4.69232 12.6924H13.3077" stroke="#344054" stroke-width="1.5" stroke-linecap="round" stroke-linejoin="round"/>
</svg>
