<svg width="40" height="40" viewBox="0 0 40 40" fill="none" xmlns="http://www.w3.org/2000/svg">
<path d="M38.3332 6.66687V16.6669M38.3332 16.6669H28.3332M38.3332 16.6669L30.5998 9.40021C28.8086 7.60806 26.5925 6.29888 24.1585 5.59483C21.7244 4.89078 19.1517 4.81479 16.6803 5.37397C14.2089 5.93315 11.9195 7.10926 10.0256 8.79257C8.13173 10.4759 6.69512 12.6115 5.84984 15.0002M1.6665 33.3335V23.3335M1.6665 23.3335H11.6665M1.6665 23.3335L9.39984 30.6002C11.1911 32.3924 13.4071 33.7015 15.8412 34.4056C18.2752 35.1096 20.848 35.1856 23.3194 34.6264C25.7907 34.0673 28.0802 32.8911 29.9741 31.2078C31.8679 29.5245 33.3046 27.3889 34.1498 25.0002" stroke="#344054" stroke-width="3.33333" stroke-linecap="round" stroke-linejoin="round"/>
</svg>
