<svg width="40" height="40" viewBox="0 0 40 40" fill="none" xmlns="http://www.w3.org/2000/svg">
<path d="M37 14.5371C37 14.8809 36.842 15.2106 36.5607 15.4537C36.2794 15.6968 35.8978 15.8334 35.5 15.8334H23.5C23.1022 15.8334 22.7206 15.6968 22.4393 15.4537C22.158 15.2106 22 14.8809 22 14.5371V5.46304C22 5.11925 22.158 4.78953 22.4393 4.54642C22.7206 4.30332 23.1022 4.16675 23.5 4.16675H27.25L28.75 6.11119H35.5C35.8978 6.11119 36.2794 6.24777 36.5607 6.49087C36.842 6.73397 37 7.06369 37 7.40749V14.5371Z" stroke="#344054" stroke-width="2.5" stroke-linecap="round" stroke-linejoin="round"/>
<path d="M37 31.2036C37 31.5474 36.842 31.8771 36.5607 32.1202C36.2794 32.3633 35.8978 32.4999 35.5 32.4999H23.5C23.1022 32.4999 22.7206 32.3633 22.4393 32.1202C22.158 31.8771 22 31.5474 22 31.2036V22.1295C22 21.7857 22.158 21.456 22.4393 21.2129C22.7206 20.9698 23.1022 20.8333 23.5 20.8333H27.25L28.75 22.7777H35.5C35.8978 22.7777 36.2794 22.9143 36.5607 23.1574C36.842 23.4005 37 23.7302 37 24.074V31.2036Z" stroke="#344054" stroke-width="2.5" stroke-linecap="round" stroke-linejoin="round"/>
<line x1="3.25" y1="4.58325" x2="3.25" y2="30.4166" stroke="#344054" stroke-width="2.5" stroke-linecap="round"/>
<line x1="3.25" y1="10.4167" x2="15.75" y2="10.4167" stroke="#344054" stroke-width="2.5" stroke-linecap="round"/>
<line x1="3.25" y1="30.4167" x2="15.75" y2="30.4167" stroke="#344054" stroke-width="2.5" stroke-linecap="round"/>
</svg>
