<svg width="44" height="37" viewBox="0 0 44 37" fill="none" xmlns="http://www.w3.org/2000/svg">
<path d="M31.0909 34.7273V31.0909C31.0909 29.1621 30.3247 27.3122 28.9608 25.9483C27.5969 24.5844 25.747 23.8182 23.8182 23.8182H9.27273C7.34388 23.8182 5.49403 24.5844 4.13013 25.9483C2.76623 27.3122 2 29.1621 2 31.0909V34.7273M42 34.7273V31.0909C41.9988 29.4795 41.4625 27.9141 40.4752 26.6406C39.488 25.367 38.1057 24.4574 36.5455 24.0545M29.2727 2.23636C30.8371 2.63691 32.2237 3.54673 33.2139 4.82238C34.2041 6.09804 34.7415 7.66696 34.7415 9.28182C34.7415 10.8967 34.2041 12.4656 33.2139 13.7413C32.2237 15.0169 30.8371 15.9267 29.2727 16.3273M23.8182 9.27273C23.8182 13.2893 20.5621 16.5455 16.5455 16.5455C12.5288 16.5455 9.27273 13.2893 9.27273 9.27273C9.27273 5.25611 12.5288 2 16.5455 2C20.5621 2 23.8182 5.25611 23.8182 9.27273Z" stroke="#344054" stroke-width="3" stroke-linecap="round" stroke-linejoin="round"/>
</svg>
