<svg width="24" height="24" viewBox="0 0 24 24" fill="none" xmlns="http://www.w3.org/2000/svg">
<path d="M17 20.587L17 5L7 5L7 20.587C7 21.0495 7 21.2808 7.09698 21.4128C7.18154 21.528 7.31133 21.6015 7.45359 21.6147C7.61673 21.63 7.81502 21.511 8.21154 21.2731L8.2116 21.273L11.5884 19.247C11.7381 19.1572 11.8129 19.1123 11.8928 19.0947C11.9634 19.0792 12.0366 19.0792 12.1072 19.0947C12.1871 19.1123 12.2619 19.1572 12.4116 19.247L15.7884 21.273C16.185 21.511 16.3833 21.63 16.5464 21.6147C16.6887 21.6015 16.8185 21.528 16.903 21.4128C17 21.2808 17 21.0495 17 20.587Z" stroke="#344054" stroke-width="2" stroke-linecap="round" stroke-linejoin="round"/>
</svg>
