<svg width="200" height="241" viewBox="0 0 200 241" fill="none" xmlns="http://www.w3.org/2000/svg">
<g opacity="0.3">
<path opacity="0.3" d="M139.67 49.25C134.203 49.2447 128.961 47.0704 125.095 43.2046C121.229 39.3387 119.055 34.097 119.05 28.6299V0H26.91C19.773 0 12.9284 2.83523 7.88176 7.88184C2.83516 12.9284 0 19.7729 0 26.9099V189.13C0.0105984 196.26 2.85043 203.094 7.89589 208.132C12.9413 213.17 19.78 216 26.91 216H137.51C141.045 216.001 144.545 215.306 147.811 213.955C151.077 212.603 154.045 210.621 156.545 208.122C159.045 205.623 161.028 202.656 162.381 199.39C163.734 196.125 164.43 192.625 164.43 189.09V49.21L139.67 49.25Z" fill="#FF9908"/>
</g>
<path d="M183.94 170.61H58.9001C50.0304 170.61 42.8401 177.8 42.8401 186.67V223.95C42.8401 232.82 50.0304 240.01 58.9001 240.01H183.94C192.81 240.01 200 232.82 200 223.95V186.67C200 177.8 192.81 170.61 183.94 170.61Z" fill="#FF9908"/>
<path d="M109.36 207.8C110.415 209.114 110.977 210.755 110.95 212.44C111.002 213.569 110.798 214.696 110.353 215.735C109.908 216.774 109.234 217.699 108.38 218.44C106.66 219.88 104.2 220.61 101 220.61H87V190.54H100.65C103.71 190.54 106.077 191.207 107.75 192.54C108.587 193.226 109.25 194.1 109.686 195.09C110.122 196.08 110.319 197.16 110.26 198.24C110.323 199.872 109.814 201.474 108.82 202.77C107.868 203.972 106.529 204.806 105.03 205.13C106.737 205.498 108.265 206.44 109.36 207.8ZM94.28 202.87H99.04C101.567 202.87 102.83 201.79 102.83 199.63C102.83 197.47 101.54 196.393 98.96 196.4H94.28V202.87ZM103.51 211.42C103.533 210.946 103.45 210.473 103.267 210.035C103.083 209.597 102.804 209.206 102.45 208.89C101.593 208.233 100.528 207.907 99.45 207.97H94.3V214.73H99.49C102.17 214.73 103.51 213.627 103.51 211.42Z" fill="white"/>
<path d="M173.61 190V195.79H161.27V202.43H170.8V207.96H161.27V220.12H154V190.05L173.61 190Z" fill="white"/>
<path d="M140.184 193.119C142.722 195.177 144.447 198.068 145.054 201.279H137.354C136.835 199.947 135.921 198.806 134.734 198.009C133.479 197.188 132.003 196.773 130.504 196.819C129.525 196.787 128.552 196.982 127.661 197.388C126.769 197.794 125.983 198.4 125.364 199.159C123.967 200.934 123.257 203.153 123.364 205.409C123.254 207.659 123.965 209.873 125.364 211.639C125.986 212.393 126.773 212.995 127.664 213.397C128.555 213.8 129.527 213.992 130.504 213.959C131.989 213.996 133.451 213.581 134.694 212.769C135.869 211.976 136.781 210.852 137.314 209.539H145.014C144.395 212.739 142.671 215.62 140.144 217.679C137.423 219.762 134.058 220.823 130.634 220.679C127.941 220.739 125.281 220.072 122.934 218.749C120.737 217.474 118.958 215.587 117.814 213.319C116.565 210.841 115.943 208.093 116.004 205.319C115.951 202.561 116.573 199.832 117.814 197.369C118.958 195.1 120.737 193.214 122.934 191.939C125.281 190.616 127.941 189.949 130.634 190.009C134.084 189.89 137.465 190.991 140.184 193.119Z" fill="white"/>
</svg>
