<svg width="200" height="241" viewBox="0 0 200 241" fill="none" xmlns="http://www.w3.org/2000/svg">
<g opacity="0.3">
<path opacity="0.3" d="M139.67 49.25C134.203 49.2447 128.961 47.0704 125.095 43.2046C121.229 39.3387 119.055 34.097 119.05 28.6299V0H26.91C19.773 0 12.9284 2.83523 7.88176 7.88184C2.83516 12.9284 0 19.7729 0 26.9099V189.13C0.0105984 196.26 2.85043 203.094 7.89589 208.132C12.9413 213.17 19.78 216 26.91 216H137.51C141.045 216.001 144.545 215.306 147.811 213.955C151.077 212.603 154.045 210.621 156.545 208.122C159.045 205.623 161.028 202.656 162.381 199.39C163.734 196.125 164.43 192.625 164.43 189.09V49.21L139.67 49.25Z" fill="#FF9908"/>
</g>
<path d="M164.43 49.25H139.67C134.203 49.2447 128.961 47.0704 125.095 43.2046C121.229 39.3387 119.055 34.097 119.05 28.6299V0L164.43 49.25Z" fill="#FF9908"/>
<path d="M183.94 170.61H58.8998C50.0302 170.61 42.8398 177.8 42.8398 186.67V223.95C42.8398 232.82 50.0302 240.01 58.8998 240.01H183.94C192.81 240.01 200 232.82 200 223.95V186.67C200 177.8 192.81 170.61 183.94 170.61Z" fill="#FF9908"/>
<path d="M80.49 213.12V220.37H73V213.12H80.49Z" fill="white"/>
<path d="M72.625 144.458L78.7624 147.868C79.9441 148.524 80.5349 148.853 81.1606 148.981C81.7144 149.095 82.2856 149.095 82.8394 148.981C83.4651 148.853 84.0559 148.524 85.2376 147.868L91.375 144.458M53.875 134.041L47.929 130.738C46.6811 130.045 46.057 129.698 45.6026 129.205C45.2007 128.769 44.8964 128.252 44.7104 127.689C44.5 127.052 44.5 126.338 44.5 124.91V118.416M44.5 97.5832V91.0892C44.5 89.6615 44.5 88.9477 44.7104 88.311C44.8964 87.7478 45.2007 87.2308 45.6026 86.7946C46.057 86.3015 46.681 85.9548 47.929 85.2615L53.875 81.9582M72.625 71.5415L78.7624 68.1318C79.9441 67.4753 80.5349 67.1471 81.1606 67.0184C81.7144 66.9045 82.2856 66.9045 82.8394 67.0184C83.4651 67.1471 84.0559 67.4753 85.2376 68.1318L91.375 71.5415M110.125 81.9582L116.071 85.2615C117.319 85.9548 117.943 86.3015 118.397 86.7945C118.799 87.2308 119.104 87.7478 119.29 88.311C119.5 88.9477 119.5 89.6615 119.5 91.0892V97.5832M119.5 118.416V124.91C119.5 126.338 119.5 127.052 119.29 127.689C119.104 128.252 118.799 128.769 118.397 129.205C117.943 129.698 117.319 130.045 116.071 130.738L110.125 134.041M72.625 102.791L82 108M82 108L91.375 102.791M82 108V118.416M44.5 87.1665L53.875 92.3748M110.125 92.3748L119.5 87.1665M82 139.25V149.666" stroke="#FF9908" stroke-width="8.33333" stroke-linecap="round" stroke-linejoin="round"/>
<path d="M101.27 190V220.07H94V190H101.27Z" fill="white"/>
<path d="M129.61 190V195.79H117.27V202.43H126.8V207.96H117.27V220.12H110V190.05L129.61 190Z" fill="white"/>
<path d="M157.184 193.119C159.722 195.177 161.447 198.068 162.054 201.279H154.354C153.835 199.947 152.921 198.806 151.734 198.009C150.479 197.188 149.003 196.773 147.504 196.819C146.525 196.787 145.552 196.982 144.661 197.388C143.769 197.794 142.983 198.4 142.364 199.159C140.967 200.934 140.257 203.153 140.364 205.409C140.254 207.659 140.965 209.873 142.364 211.639C142.986 212.393 143.773 212.995 144.664 213.397C145.555 213.8 146.527 213.992 147.504 213.959C148.989 213.996 150.451 213.581 151.694 212.769C152.869 211.976 153.781 210.852 154.314 209.539H162.014C161.395 212.739 159.671 215.62 157.144 217.679C154.423 219.762 151.058 220.823 147.634 220.679C144.941 220.739 142.281 220.072 139.934 218.749C137.737 217.474 135.958 215.587 134.814 213.319C133.565 210.841 132.943 208.093 133.004 205.319C132.951 202.561 133.573 199.832 134.814 197.369C135.958 195.1 137.737 193.214 139.934 191.939C142.281 190.616 144.941 189.949 147.634 190.009C151.084 189.89 154.465 190.991 157.184 193.119Z" fill="white"/>
</svg>
