<svg width="200" height="240" viewBox="0 0 200 240" fill="none" xmlns="http://www.w3.org/2000/svg">
<g opacity="0.3">
<path opacity="0.3" d="M139.71 49.24C134.241 49.2373 128.997 47.0644 125.129 43.1982C121.261 39.3321 119.085 34.0889 119.08 28.62V0H26.9099C23.3752 -2.4406e-07 19.8751 0.696337 16.6096 2.04932C13.3441 3.4023 10.3771 5.38537 7.87818 7.88525C5.37922 10.3851 3.3973 13.3529 2.04553 16.6189C0.693768 19.8849 -0.00131167 23.3853 1.85821e-06 26.92V189.13C0.0106002 196.26 2.85042 203.094 7.89588 208.132C12.9413 213.17 19.7799 216 26.9099 216H137.51C141.045 216 144.545 215.304 147.81 213.951C151.076 212.598 154.043 210.615 156.542 208.115C159.041 205.615 161.023 202.647 162.375 199.381C163.726 196.115 164.421 192.615 164.42 189.08V49.2L139.71 49.24Z" fill="#005FAD"/>
</g>
<path d="M164.42 49.24H139.71C134.241 49.2373 128.997 47.0644 125.129 43.1982C121.261 39.3321 119.085 34.0889 119.08 28.62V0L164.42 49.24Z" fill="#005FAD"/>
<path d="M123.49 86.34H34.4897C33.6331 86.34 32.8116 85.9997 32.2058 85.3939C31.6001 84.7882 31.2598 83.9666 31.2598 83.11C31.2598 82.2533 31.6001 81.4318 32.2058 80.826C32.8116 80.2203 33.6331 79.88 34.4897 79.88H123.49C123.913 79.88 124.333 79.9637 124.724 80.1261C125.116 80.2885 125.471 80.5266 125.77 80.8267C126.069 81.1267 126.306 81.4828 126.468 81.8746C126.629 82.2665 126.711 82.6863 126.71 83.11C126.71 83.9649 126.371 84.7849 125.767 85.3904C125.164 85.9958 124.345 86.3373 123.49 86.34Z" fill="#005FAD"/>
<path d="M183.94 170.6H58.8998C50.0301 170.6 42.8398 177.79 42.8398 186.66V223.94C42.8398 232.81 50.0301 240 58.8998 240H183.94C192.81 240 200 232.81 200 223.94V186.66C200 177.79 192.81 170.6 183.94 170.6Z" fill="#005FAD"/>
<path d="M70.7097 213.37V220.65H63.1797V213.37H70.7097Z" fill="white"/>
<path d="M100.52 58.17V147.17C100.521 147.595 100.438 148.015 100.277 148.408C100.115 148.8 99.877 149.157 99.5768 149.457C99.2766 149.757 98.92 149.995 98.5275 150.157C98.135 150.319 97.7144 150.401 97.2898 150.4C96.8661 150.4 96.4466 150.316 96.0553 150.154C95.664 149.991 95.3086 149.753 95.0094 149.453C94.7103 149.153 94.4733 148.797 94.312 148.405C94.1508 148.013 94.0685 147.594 94.0698 147.17V58.17C94.0698 57.3151 94.4088 56.495 95.0123 55.8895C95.6159 55.2841 96.4349 54.9426 97.2898 54.9399C98.1465 54.9399 98.9681 55.2802 99.5739 55.886C100.18 56.4917 100.52 57.3134 100.52 58.17Z" fill="#005FAD"/>
<path d="M107.81 72.36H87.2002V92.97H107.81V72.36Z" fill="#005FAD"/>
<path d="M116.78 191L124.14 213.63L131.5 191H139.28L128.82 221.07H119.42L109 191H116.78Z" fill="white"/>
<path d="M97.4399 221.075L90.9299 209.715H89.27V221.075H82V191.005H94.4399C96.508 190.948 98.5614 191.369 100.44 192.235C101.982 192.969 103.27 194.145 104.14 195.615C104.977 197.118 105.402 198.815 105.37 200.535C105.426 202.543 104.791 204.51 103.57 206.105C102.223 207.72 100.369 208.831 98.3101 209.255L105.46 221.075H97.4399ZM89.27 204.745H93.78C94.9321 204.832 96.0735 204.474 96.97 203.745C97.3251 203.37 97.5975 202.924 97.7698 202.436C97.942 201.949 98.0102 201.431 97.97 200.915C98.0054 200.405 97.9348 199.892 97.7627 199.411C97.5906 198.929 97.3207 198.488 96.97 198.115C96.5338 197.747 96.029 197.47 95.4849 197.298C94.9408 197.126 94.3683 197.064 93.8 197.115H89.29L89.27 204.745Z" fill="white"/>
<path d="M166.57 191V196.79H158.4V221.07H151.09V196.79H143V191H166.57Z" fill="white"/>
</svg>
