<svg width="37" height="37" viewBox="0 0 37 37" fill="none" xmlns="http://www.w3.org/2000/svg">
<path d="M37 18.5C37 28.7173 28.7173 37 18.5 37C8.28273 37 0 28.7173 0 18.5C0 8.28273 8.28273 0 18.5 0C28.7173 0 37 8.28273 37 18.5ZM4.21521 18.5C4.21521 26.3893 10.6107 32.7848 18.5 32.7848C26.3893 32.7848 32.7848 26.3893 32.7848 18.5C32.7848 10.6107 26.3893 4.21521 18.5 4.21521C10.6107 4.21521 4.21521 10.6107 4.21521 18.5Z" fill="white"/>
<path d="M11.9393 17.9393C11.3536 18.5251 11.3536 19.4749 11.9393 20.0607L21.4853 29.6066C22.0711 30.1924 23.0208 30.1924 23.6066 29.6066C24.1924 29.0208 24.1924 28.0711 23.6066 27.4853L15.1213 19L23.6066 10.5147C24.1924 9.92893 24.1924 8.97919 23.6066 8.3934C23.0208 7.80761 22.0711 7.80761 21.4853 8.3934L11.9393 17.9393ZM14 17.5L13 17.5L13 20.5L14 20.5L14 17.5Z" fill="white"/>
</svg>
