<svg width="102" height="93" viewBox="0 0 102 93" fill="none" xmlns="http://www.w3.org/2000/svg">
<path d="M96.9 31C98.2526 31 99.5498 30.4557 100.506 29.4867C101.463 28.5178 102 27.2036 102 25.8333C102 24.463 101.463 23.1489 100.506 22.1799C99.5498 21.211 98.2526 20.6667 96.9 20.6667H91.8V10.3333H96.9C98.2526 10.3333 99.5498 9.78899 100.506 8.82005C101.463 7.85111 102 6.53695 102 5.16667C102 3.79638 101.463 2.48222 100.506 1.51328C99.5498 0.544343 98.2526 0 96.9 0H5.1C3.7474 0 2.45019 0.544343 1.49376 1.51328C0.53732 2.48222 0 3.79638 0 5.16667C0 6.53695 0.53732 7.85111 1.49376 8.82005C2.45019 9.78899 3.7474 10.3333 5.1 10.3333H20.4V20.6667H5.1C3.7474 20.6667 2.45019 21.211 1.49376 22.1799C0.53732 23.1489 0 24.463 0 25.8333C0 27.2036 0.53732 28.5178 1.49376 29.4867C2.45019 30.4557 3.7474 31 5.1 31H10.2V41.3333H5.1C3.7474 41.3333 2.45019 41.8777 1.49376 42.8466C0.53732 43.8156 0 45.1297 0 46.5C0 47.8703 0.53732 49.1844 1.49376 50.1534C2.45019 51.1223 3.7474 51.6667 5.1 51.6667H20.4V62H5.1C3.7474 62 2.45019 62.5443 1.49376 63.5133C0.53732 64.4822 0 65.7964 0 67.1667C0 68.5369 0.53732 69.8511 1.49376 70.8201C2.45019 71.789 3.7474 72.3333 5.1 72.3333H10.2V82.6667H5.1C3.7474 82.6667 2.45019 83.211 1.49376 84.1799C0.53732 85.1489 0 86.463 0 87.8333C0 89.2036 0.53732 90.5178 1.49376 91.4867C2.45019 92.4557 3.7474 93 5.1 93H96.9C98.2526 93 99.5498 92.4557 100.506 91.4867C101.463 90.5178 102 89.2036 102 87.8333C102 86.463 101.463 85.1489 100.506 84.1799C99.5498 83.211 98.2526 82.6667 96.9 82.6667H81.6V72.3333H96.9C98.2526 72.3333 99.5498 71.789 100.506 70.8201C101.463 69.8511 102 68.5369 102 67.1667C102 65.7964 101.463 64.4822 100.506 63.5133C99.5498 62.5443 98.2526 62 96.9 62H91.8V51.6667H96.9C98.2526 51.6667 99.5498 51.1223 100.506 50.1534C101.463 49.1844 102 47.8703 102 46.5C102 45.1297 101.463 43.8156 100.506 42.8466C99.5498 41.8777 98.2526 41.3333 96.9 41.3333H81.6V31H96.9ZM30.6 10.3333H51V20.6667H30.6V10.3333ZM71.4 31V41.3333H51V31H71.4ZM20.4 31H40.8V41.3333H20.4V31ZM51 51.6667V62H30.6V51.6667H51ZM40.8 82.6667H20.4V72.3333H40.8V82.6667ZM71.4 82.6667H51V72.3333H71.4V82.6667ZM81.6 62H61.2V51.6667H81.6V62ZM61.2 20.6667V10.3333H81.6V20.6667H61.2Z" fill="#152243"/>
</svg>
