<svg width="24" height="24" viewBox="0 0 24 24" fill="none" xmlns="http://www.w3.org/2000/svg">
<path d="M7.5 1H14.6C16.8402 1 17.9603 1 18.816 1.53286C19.5686 2.00157 20.1805 2.74948 20.564 3.66938C21 4.71517 21 6.08419 21 8.82222V17.5M12.6 11.5H6.6M8.6 15H6.6M14.6 8H6.6M6.2 23H14.3C15.4201 23 15.9802 23 16.408 22.7336C16.7843 22.4992 17.0903 22.1253 17.282 21.6653C17.5 21.1424 17.5 20.4579 17.5 19.0889V7.58049C17.5 6.21147 17.5 5.52697 17.282 5.00407C17.0903 4.54412 16.7843 4.17017 16.408 3.93581C15.9802 3.66938 15.4201 3.66938 14.3 3.66938H6.2C5.0799 3.66938 4.51984 3.66938 4.09202 3.93581C3.71569 4.17017 3.40973 4.54412 3.21799 5.00407C3 5.52697 3 6.21147 3 7.58049V19.0889C3 20.4579 3 21.1424 3.21799 21.6653C3.40973 22.1253 3.71569 22.4992 4.09202 22.7336C4.51984 23 5.0799 23 6.2 23Z" stroke="#344054" stroke-width="2" stroke-linecap="round" stroke-linejoin="round"/>
</svg>
