<svg width="73" height="93" viewBox="0 0 73 93" fill="none" xmlns="http://www.w3.org/2000/svg">
<path d="M36.5 0C26.8196 0 17.5357 3.91926 10.6906 10.8956C3.84553 17.8719 0 27.3339 0 37.1999C0 62.3098 32.1656 90.6747 33.5344 91.8837C34.3608 92.6041 35.4125 93 36.5 93C37.5875 93 38.6392 92.6041 39.4656 91.8837C41.0625 90.6747 73 62.3098 73 37.1999C73 27.3339 69.1545 17.8719 62.3094 10.8956C55.4643 3.91926 46.1804 0 36.5 0V0ZM36.5 82.0722C26.7819 72.7723 9.125 52.7308 9.125 37.1999C9.125 29.8004 12.0091 22.7039 17.143 17.4717C22.2768 12.2394 29.2397 9.29997 36.5 9.29997C43.7603 9.29997 50.7232 12.2394 55.8571 17.4717C60.9909 22.7039 63.875 29.8004 63.875 37.1999C63.875 52.7308 46.2181 72.8188 36.5 82.0722ZM36.5 18.5999C32.8905 18.5999 29.362 19.6908 26.3608 21.7346C23.3596 23.7784 21.0205 26.6833 19.6392 30.082C18.2579 33.4807 17.8965 37.2205 18.6007 40.8285C19.3048 44.4366 21.043 47.7508 23.5953 50.352C26.1476 52.9533 29.3994 54.7247 32.9396 55.4424C36.4798 56.1601 40.1492 55.7918 43.484 54.384C46.8187 52.9762 49.669 50.5922 51.6743 47.5334C53.6797 44.4747 54.75 40.8786 54.75 37.1999C54.75 32.2669 52.8272 27.5359 49.4047 24.0477C45.9822 20.5596 41.3402 18.5999 36.5 18.5999ZM36.5 46.4998C34.6952 46.4998 32.931 45.9544 31.4304 44.9325C29.9298 43.9106 28.7602 42.4582 28.0696 40.7588C27.3789 39.0595 27.1982 37.1896 27.5503 35.3855C27.9024 33.5815 28.7715 31.9244 30.0477 30.6238C31.3238 29.3232 32.9497 28.4374 34.7198 28.0786C36.4899 27.7198 38.3246 27.9039 39.992 28.6078C41.6594 29.3117 43.0845 30.5037 44.0872 32.0331C45.0898 33.5625 45.625 35.3605 45.625 37.1999C45.625 39.6664 44.6636 42.0319 42.9523 43.7759C41.2411 45.52 38.9201 46.4998 36.5 46.4998Z" fill="#152243"/>
</svg>
