<svg width="81" height="93" viewBox="0 0 81 93" fill="none" xmlns="http://www.w3.org/2000/svg">
<path d="M76.95 0H4.05C2.97587 0 1.94574 0.489909 1.18622 1.36195C0.426695 2.234 0 3.41674 0 4.65V88.35C0 89.5833 0.426695 90.766 1.18622 91.6381C1.94574 92.5101 2.97587 93 4.05 93H28.35C29.4241 93 30.4543 92.5101 31.2138 91.6381C31.9733 90.766 32.4 89.5833 32.4 88.35V37.2H76.95C78.0241 37.2 79.0543 36.7101 79.8138 35.838C80.5733 34.966 81 33.7833 81 32.55V4.65C81 3.41674 80.5733 2.234 79.8138 1.36195C79.0543 0.489909 78.0241 0 76.95 0ZM72.9 27.9H64.8V23.25C64.8 22.0167 64.3733 20.834 63.6138 19.962C62.8543 19.0899 61.8241 18.6 60.75 18.6C59.6759 18.6 58.6457 19.0899 57.8862 19.962C57.1267 20.834 56.7 22.0167 56.7 23.25V27.9H48.6V23.25C48.6 22.0167 48.1733 20.834 47.4138 19.962C46.6543 19.0899 45.6241 18.6 44.55 18.6C43.4759 18.6 42.4457 19.0899 41.6862 19.962C40.9267 20.834 40.5 22.0167 40.5 23.25V27.9H32.4V23.25C32.4 22.0167 31.9733 20.834 31.2138 19.962C30.4543 19.0899 29.4241 18.6 28.35 18.6C27.2759 18.6 26.2457 19.0899 25.4862 19.962C24.7267 20.834 24.3 22.0167 24.3 23.25V27.9H20.25C19.1759 27.9 18.1457 28.3899 17.3862 29.262C16.6267 30.134 16.2 31.3167 16.2 32.55C16.2 33.7833 16.6267 34.966 17.3862 35.838C18.1457 36.7101 19.1759 37.2 20.25 37.2H24.3V46.5H20.25C19.1759 46.5 18.1457 46.9899 17.3862 47.862C16.6267 48.734 16.2 49.9167 16.2 51.15C16.2 52.3833 16.6267 53.566 17.3862 54.438C18.1457 55.3101 19.1759 55.8 20.25 55.8H24.3V65.1H20.25C19.1759 65.1 18.1457 65.5899 17.3862 66.462C16.6267 67.334 16.2 68.5167 16.2 69.75C16.2 70.9833 16.6267 72.166 17.3862 73.038C18.1457 73.9101 19.1759 74.4 20.25 74.4H24.3V83.7H8.1V9.3H72.9V27.9Z" fill="#152243"/>
</svg>
