<svg width="58" height="55" viewBox="0 0 58 55" fill="none" xmlns="http://www.w3.org/2000/svg">
<path d="M42.6667 0H5.33333C2.392 0 0 2.392 0 5.33333V42.6667C0 45.608 2.392 48 5.33333 48H31.5L47.5 26.6667C47.5 29.608 50.4413 26.6667 47.5 26.6667L48 5.33333C48 2.392 45.608 0 42.6667 0ZM5.33333 42.6667V5.33333H42.6667L42 26L47.5 26.6667L31.5 48L29 42.6667H5.33333Z" fill="#2E3A59"/>
<path d="M18.6667 29.3333L16 26.6667L8 37.3333H32.2091L33.5 34L35.5 31L26.6667 18.6667L18.6667 29.3333Z" fill="#2E3A59"/>
<path d="M14.6667 21.3333C16.8758 21.3333 18.6667 19.5425 18.6667 17.3333C18.6667 15.1242 16.8758 13.3333 14.6667 13.3333C12.4575 13.3333 10.6667 15.1242 10.6667 17.3333C10.6667 19.5425 12.4575 21.3333 14.6667 21.3333Z" fill="#2E3A59"/>
<path d="M44.95 38.8035V47.75H42.05V38.8035L38.2945 42.5445L36.25 40.5L43.5 33.25L50.75 40.5L48.7055 42.5445L44.95 38.8035Z" fill="#9FD1FF"/>
<path fill-rule="evenodd" clip-rule="evenodd" d="M43.5 55C35.4919 55 29 48.5081 29 40.5C29 32.4919 35.4919 26 43.5 26C51.5081 26 58 32.4919 58 40.5C58 48.5081 51.5081 55 43.5 55ZM43.5 52.1C37.0935 52.1 31.9 46.9065 31.9 40.5C31.9 34.0935 37.0935 28.9 43.5 28.9C49.9065 28.9 55.1 34.0935 55.1 40.5C55.1 46.9065 49.9065 52.1 43.5 52.1Z" fill="#9FD1FF"/>
</svg>
