<svg width="271" height="113" viewBox="0 0 271 113" fill="none" xmlns="http://www.w3.org/2000/svg" preserveAspectRatio="xMidYMax meet">
<path d="M41.5577 63.7798C37.4532 61.5142 35.2235 58.8208 35.2819 56.1989L35.642 40.0332C35.7189 36.5814 39.7464 33.6136 46.4865 32.0423L123.316 14.1304C132.891 11.898 145.898 12.9284 155.029 16.6429L222.341 44.0251C228.46 46.5145 231.978 49.8753 231.905 53.1619L231.407 75.5117C231.34 78.5126 228.283 81.1692 222.965 82.8482L149.397 106.074C138.538 109.502 121.585 107.955 111.993 102.66L41.5577 63.7798Z" fill="#0B70F8"/>
<path d="M42.8751 31.7732L120.003 6.8359C129.725 3.69263 144.981 4.91544 154.078 9.56713L226.249 46.4716C235.346 51.1233 234.839 57.4424 225.117 60.5857L147.989 85.523C138.268 88.6663 123.012 87.4434 113.915 82.7918L41.7438 45.8873C32.6468 41.2356 33.1533 34.9165 42.8751 31.7732Z" fill="#0B70F8" stroke="white" stroke-width="3"/>
<g filter="url(#filter0_d_577_26421)">
<path d="M152.786 27.5674C153.867 30.1392 151.651 31.4158 148.748 29.932C147.428 29.2572 145.834 28.4228 143.921 27.393C142.087 30.2615 139.251 34.731 135.904 40.1296C135.025 41.5474 132.564 41.6917 130.605 40.4405L130.603 40.4396C126.761 37.9924 122.906 35.5585 118.997 33.2084C116.901 35.6259 113.248 40.1927 110.148 45.8231C109.362 47.25 107.109 47.5167 105.114 46.4188C103.12 45.3209 102.14 43.2741 102.926 41.8471C105.967 36.3235 109.676 31.0408 114.161 26.4346L114.168 26.4274C114.17 26.4257 114.169 26.4262 114.169 26.4262C115.172 25.4043 117.132 25.3509 118.853 26.2985C122.808 28.4756 126.616 30.9344 130.429 33.3344C132.991 29.2272 135.165 25.8006 136.695 23.4075C135.031 22.4668 133.639 21.6613 132.48 20.9758C129.673 19.3159 129.567 16.7598 132.319 16.2982C135.83 15.7091 139.469 15.1765 143.303 15.3589C145.03 15.4411 146.711 16.3665 147.704 17.7817C149.909 20.9249 151.405 24.2846 152.786 27.5674Z" fill="#A6CFFF"/>
<path d="M121.498 77.545C119.09 77.772 116.663 76.6843 115.436 74.5505C114.701 73.2724 113.765 71.5069 112.602 69.0765C111.438 66.646 110.674 64.8604 110.172 63.5547C109.334 61.3747 110.516 59.86 112.871 59.5231C113.902 59.3757 115.197 59.205 116.811 59.0139C118.425 58.8228 119.736 58.6852 120.79 58.5859C123.198 58.3589 125.625 59.4466 126.852 61.5804C127.587 62.8585 128.522 64.624 129.686 67.0544C130.849 69.4849 131.614 71.2705 132.116 72.5763C132.953 74.7562 131.772 76.2709 129.417 76.6078C128.386 76.7552 127.091 76.9259 125.477 77.117C123.863 77.3081 122.552 77.4457 121.498 77.545Z" fill="#A6CFFF"/>
<path d="M167.721 72.0604C164.898 72.2894 162.104 70.7478 160.719 68.2519C159.284 65.6639 157.087 61.4441 153.826 54.6329C150.566 47.8217 148.704 43.5623 147.641 40.9301C146.616 38.3916 147.713 36.3894 150.441 35.9615C151.341 35.8203 152.418 35.6708 153.702 35.5188C154.987 35.3668 156.084 35.2589 157.015 35.1834C159.838 34.9544 162.632 36.496 164.017 38.9919C165.453 41.5799 167.65 45.7997 170.91 52.6109C174.171 59.422 176.033 63.6815 177.095 66.3136C178.121 68.8522 177.023 70.8544 174.295 71.2823C173.395 71.4235 172.318 71.573 171.034 71.725C169.75 71.877 168.652 71.9849 167.721 72.0604Z" fill="#A6CFFF"/>
<path d="M144.751 74.7896C142.057 75.0309 139.36 73.6752 138.015 71.2878C136.958 69.4113 135.496 66.6224 133.524 62.5011C131.551 58.3798 130.329 55.5624 129.572 53.6505C128.61 51.2178 129.789 49.4033 132.413 49.0152C133.356 48.8757 134.498 48.7223 135.876 48.5593C137.253 48.3963 138.412 48.2773 139.38 48.1906C142.074 47.9493 144.771 49.305 146.116 51.6924C147.173 53.5689 148.635 56.3578 150.607 60.4791C152.58 64.6004 153.802 67.4178 154.559 69.3297C155.521 71.7624 154.342 73.5769 151.718 73.965C150.775 74.1045 149.633 74.2579 148.255 74.4209C146.878 74.5839 145.719 74.7029 144.751 74.7896Z" fill="#A6CFFF"/>
</g>
<defs>
<filter id="filter0_d_577_26421" x="98.6548" y="15.3223" width="82.8191" height="70.2524" filterUnits="userSpaceOnUse" color-interpolation-filters="sRGB">
<feFlood flood-opacity="0" result="BackgroundImageFix"/>
<feColorMatrix in="SourceAlpha" type="matrix" values="0 0 0 0 0 0 0 0 0 0 0 0 0 0 0 0 0 0 127 0" result="hardAlpha"/>
<feOffset dy="4"/>
<feGaussianBlur stdDeviation="2"/>
<feComposite in2="hardAlpha" operator="out"/>
<feColorMatrix type="matrix" values="0 0 0 0 0 0 0 0 0 0 0 0 0 0 0 0 0 0 0.25 0"/>
<feBlend mode="normal" in2="BackgroundImageFix" result="effect1_dropShadow_577_26421"/>
<feBlend mode="normal" in="SourceGraphic" in2="effect1_dropShadow_577_26421" result="shape"/>
</filter>
</defs>
</svg>
