<svg width="271" height="113" viewBox="0 0 271 113" fill="none" xmlns="http://www.w3.org/2000/svg" preserveAspectRatio="xMidYMax meet">
<path d="M41.5577 63.7798C37.4532 61.5142 35.2235 58.8208 35.2819 56.1989L35.642 40.0332C35.7189 36.5814 39.7464 33.6136 46.4865 32.0423L123.316 14.1304C132.891 11.898 145.898 12.9284 155.029 16.6429L222.341 44.0251C228.46 46.5145 231.978 49.8753 231.905 53.1619L231.407 75.5117C231.34 78.5126 228.283 81.1692 222.965 82.8482L149.397 106.074C138.538 109.502 121.585 107.955 111.993 102.66L41.5577 63.7798Z" fill="#0B70F8"/>
<path d="M42.8751 31.7732L120.003 6.8359C129.725 3.69263 144.981 4.91544 154.078 9.56713L226.249 46.4716C235.346 51.1233 234.839 57.4424 225.117 60.5857L147.989 85.523C138.268 88.6663 123.012 87.4434 113.915 82.7918L41.7438 45.8873C32.6468 41.2356 33.1533 34.9165 42.8751 31.7732Z" fill="#0B70F8" stroke="white" stroke-width="3"/>
<g filter="url(#filter0_d_577_26420)">
<path d="M105.05 54.0789C103.392 52.6507 102.476 50.7774 102.579 49.0228C103.225 37.9422 111.354 28.9082 124.643 26.4453C137.931 23.9825 152.808 28.7526 163.28 37.7725C164.938 39.2007 165.854 41.074 165.751 42.8285C165.105 53.9092 156.976 62.9432 143.687 65.406C130.399 67.8689 115.522 63.0988 105.05 54.0789Z" fill="#A6CFFF"/>
<path d="M139.359 56.5512C145.781 55.3609 148.662 49.6386 145.794 43.7705C145.097 42.3457 144.126 41.0434 142.962 39.905C142.611 39.5614 142.012 39.7246 141.942 40.1107C141.739 41.2291 140.85 42.1114 139.471 42.3669C137.33 42.7637 134.82 41.4997 133.864 39.5437C133.248 38.2837 133.427 37.0439 134.205 36.2151C134.473 35.9289 134.248 35.3504 133.762 35.2729C132.155 35.0159 130.53 35.0113 128.971 35.3003C122.548 36.4906 119.667 42.2127 122.536 48.081C125.404 53.9492 132.936 57.7416 139.359 56.5512Z" fill="#1575E5"/>
</g>
<defs>
<filter id="filter0_d_577_26420" x="98.5708" y="25.8008" width="71.1885" height="48.25" filterUnits="userSpaceOnUse" color-interpolation-filters="sRGB">
<feFlood flood-opacity="0" result="BackgroundImageFix"/>
<feColorMatrix in="SourceAlpha" type="matrix" values="0 0 0 0 0 0 0 0 0 0 0 0 0 0 0 0 0 0 127 0" result="hardAlpha"/>
<feOffset dy="4"/>
<feGaussianBlur stdDeviation="2"/>
<feComposite in2="hardAlpha" operator="out"/>
<feColorMatrix type="matrix" values="0 0 0 0 0 0 0 0 0 0 0 0 0 0 0 0 0 0 0.25 0"/>
<feBlend mode="normal" in2="BackgroundImageFix" result="effect1_dropShadow_577_26420"/>
<feBlend mode="normal" in="SourceGraphic" in2="effect1_dropShadow_577_26420" result="shape"/>
</filter>
</defs>
</svg>
