<svg width="1920" height="1080" viewBox="0 0 1920 1080" fill="none" xmlns="http://www.w3.org/2000/svg">
<g clip-path="url(#clip0_577_26323)">
<rect width="1920" height="1080" fill="url(#paint0_linear_577_26323)"/>
<g filter="url(#filter0_f_577_26323)">
<circle cx="1653" cy="-408" r="755" fill="#152243"/>
</g>
<path d="M1999.42 1105.65C1847.06 1092.9 1529.12 1043.41 1476.24 947.414C1410.13 827.422 2073.13 440.868 1849.05 266.185C1669.79 126.439 1095.4 -4.38825 809.885 -56.4255" stroke="#41B6E8" stroke-opacity="0.2" stroke-width="3" stroke-linecap="round"/>
<path d="M2007.96 1008.24C1855.04 995.449 1535.93 945.772 1482.84 849.425C1416.49 728.99 2081.94 341.01 1857.04 165.682C1677.11 25.4201 1587.62 54.4081 1301.06 2.17875" stroke="#41B6E8" stroke-opacity="0.2" stroke-width="3" stroke-linecap="round"/>
<path d="M2234.31 498.238C2044.07 479.079 1646.58 410.4 1578.63 288.956C1493.69 137.151 2198.51 -377.716 1915.45 -601.379" stroke="#41B6E8" stroke-opacity="0.2" stroke-width="3" stroke-linecap="round"/>
<path d="M-34.4075 64.0913C118.482 64.6997 439.346 88.7888 499.691 180.279C575.122 294.642 -55.0902 732.627 182.152 888.963C371.945 1014.03 954.911 1098.83 1243.66 1128.03" stroke="#41B6E8" stroke-opacity="0.2" stroke-width="3" stroke-linecap="round"/>
<path d="M-35.1828 161.867C118.271 162.477 440.319 186.655 500.886 278.483C576.596 393.268 -55.9418 832.869 182.176 989.782C372.669 1115.31 459.572 1079.31 749.383 1108.62" stroke="#41B6E8" stroke-opacity="0.2" stroke-width="3" stroke-linecap="round"/>
<path d="M-220.323 688.238C-29.154 692.228 372.529 729.124 449.91 844.788C546.637 989.369 -115.065 1558.58 184.859 1759.06" stroke="#41B6E8" stroke-opacity="0.2" stroke-width="3" stroke-linecap="round"/>
<g filter="url(#filter1_d_577_26323)">
<path d="M1820.26 1057V1043H1827.74C1829.67 1043 1831.1 1043.35 1832.02 1044.04C1832.94 1044.72 1833.4 1045.59 1833.4 1046.66C1833.4 1047.37 1833.2 1048 1832.8 1048.56C1832.41 1049.11 1831.84 1049.54 1831.1 1049.86C1830.35 1050.18 1829.43 1050.34 1828.34 1050.34L1828.74 1049.26C1829.83 1049.26 1830.77 1049.41 1831.56 1049.72C1832.36 1050.03 1832.97 1050.47 1833.4 1051.06C1833.84 1051.63 1834.06 1052.33 1834.06 1053.14C1834.06 1054.35 1833.55 1055.3 1832.54 1055.98C1831.54 1056.66 1830.07 1057 1828.14 1057H1820.26ZM1824.9 1053.7H1827.74C1828.26 1053.7 1828.64 1053.61 1828.9 1053.42C1829.16 1053.23 1829.3 1052.96 1829.3 1052.6C1829.3 1052.24 1829.16 1051.97 1828.9 1051.78C1828.64 1051.59 1828.26 1051.5 1827.74 1051.5H1824.58V1048.38H1827.1C1827.63 1048.38 1828.02 1048.29 1828.26 1048.12C1828.51 1047.93 1828.64 1047.67 1828.64 1047.34C1828.64 1046.99 1828.51 1046.73 1828.26 1046.56C1828.02 1046.39 1827.63 1046.3 1827.1 1046.3H1824.9V1053.7ZM1835.72 1057V1043H1840.44V1057H1835.72ZM1842.72 1057V1043H1846.6L1852.2 1052.14H1850.16L1855.6 1043H1859.48L1859.52 1057H1855.22L1855.18 1049.48H1855.86L1852.14 1055.74H1850.06L1846.18 1049.48H1847.02V1057H1842.72ZM1861.8 1057V1043H1865.68L1871.28 1052.14H1869.24L1874.68 1043H1878.56L1878.6 1057H1874.3L1874.26 1049.48H1874.94L1871.22 1055.74H1869.14L1865.26 1049.48H1866.1V1057H1861.8ZM1886.1 1057.32C1884.93 1057.32 1883.79 1057.19 1882.7 1056.92C1881.61 1056.65 1880.71 1056.31 1880 1055.88L1881.52 1052.44C1882.19 1052.83 1882.93 1053.14 1883.74 1053.38C1884.57 1053.61 1885.37 1053.72 1886.14 1053.72C1886.59 1053.72 1886.95 1053.69 1887.2 1053.64C1887.47 1053.57 1887.66 1053.49 1887.78 1053.38C1887.9 1053.26 1887.96 1053.12 1887.96 1052.96C1887.96 1052.71 1887.82 1052.51 1887.54 1052.36C1887.26 1052.21 1886.89 1052.09 1886.42 1052C1885.97 1051.89 1885.47 1051.79 1884.92 1051.68C1884.37 1051.56 1883.82 1051.41 1883.26 1051.22C1882.71 1051.03 1882.21 1050.79 1881.74 1050.48C1881.29 1050.17 1880.92 1049.77 1880.64 1049.28C1880.36 1048.77 1880.22 1048.15 1880.22 1047.4C1880.22 1046.53 1880.46 1045.75 1880.94 1045.04C1881.43 1044.32 1882.16 1043.75 1883.12 1043.32C1884.09 1042.89 1885.3 1042.68 1886.74 1042.68C1887.69 1042.68 1888.62 1042.78 1889.54 1042.98C1890.46 1043.18 1891.29 1043.49 1892.02 1043.9L1890.6 1047.32C1889.91 1046.97 1889.23 1046.71 1888.58 1046.54C1887.94 1046.37 1887.31 1046.28 1886.7 1046.28C1886.25 1046.28 1885.89 1046.32 1885.62 1046.4C1885.35 1046.48 1885.16 1046.59 1885.04 1046.72C1884.93 1046.85 1884.88 1047 1884.88 1047.16C1884.88 1047.4 1885.02 1047.59 1885.3 1047.74C1885.58 1047.87 1885.95 1047.99 1886.4 1048.08C1886.87 1048.17 1887.37 1048.27 1887.92 1048.38C1888.48 1048.49 1889.03 1048.63 1889.58 1048.82C1890.13 1049.01 1890.63 1049.25 1891.08 1049.56C1891.55 1049.87 1891.92 1050.27 1892.2 1050.76C1892.48 1051.25 1892.62 1051.87 1892.62 1052.6C1892.62 1053.45 1892.37 1054.24 1891.88 1054.96C1891.4 1055.67 1890.68 1056.24 1889.72 1056.68C1888.76 1057.11 1887.55 1057.32 1886.1 1057.32Z" fill="white"/>
<path d="M1687.46 1057V1043H1692.7C1693.88 1043 1694.9 1043.19 1695.76 1043.58C1696.61 1043.95 1697.26 1044.5 1697.72 1045.22C1698.18 1045.93 1698.42 1046.79 1698.42 1047.8C1698.42 1048.79 1698.18 1049.64 1697.72 1050.36C1697.26 1051.07 1696.61 1051.61 1695.76 1052C1694.9 1052.39 1693.88 1052.58 1692.7 1052.58H1688.28L1688.94 1051.88V1057H1687.46ZM1688.94 1052L1688.28 1051.28H1692.66C1694.06 1051.28 1695.12 1050.98 1695.84 1050.38C1696.57 1049.77 1696.94 1048.91 1696.94 1047.8C1696.94 1046.68 1696.57 1045.81 1695.84 1045.2C1695.12 1044.59 1694.06 1044.28 1692.66 1044.28H1688.28L1688.94 1043.58V1052ZM1705.54 1057.1C1704.52 1057.1 1703.61 1056.87 1702.8 1056.42C1702 1055.95 1701.36 1055.32 1700.9 1054.52C1700.43 1053.71 1700.2 1052.78 1700.2 1051.74C1700.2 1050.69 1700.43 1049.76 1700.9 1048.96C1701.36 1048.16 1702 1047.53 1702.8 1047.08C1703.6 1046.63 1704.51 1046.4 1705.54 1046.4C1706.58 1046.4 1707.5 1046.63 1708.3 1047.08C1709.11 1047.53 1709.74 1048.16 1710.2 1048.96C1710.66 1049.76 1710.9 1050.69 1710.9 1051.74C1710.9 1052.78 1710.66 1053.71 1710.2 1054.52C1709.74 1055.32 1709.11 1055.95 1708.3 1056.42C1707.48 1056.87 1706.56 1057.1 1705.54 1057.1ZM1705.54 1055.84C1706.3 1055.84 1706.97 1055.67 1707.56 1055.34C1708.14 1054.99 1708.6 1054.51 1708.94 1053.9C1709.28 1053.27 1709.46 1052.55 1709.46 1051.74C1709.46 1050.91 1709.28 1050.19 1708.94 1049.58C1708.6 1048.97 1708.14 1048.49 1707.56 1048.16C1706.97 1047.81 1706.3 1047.64 1705.56 1047.64C1704.81 1047.64 1704.14 1047.81 1703.56 1048.16C1702.97 1048.49 1702.5 1048.97 1702.16 1049.58C1701.81 1050.19 1701.64 1050.91 1701.64 1051.74C1701.64 1052.55 1701.81 1053.27 1702.16 1053.9C1702.5 1054.51 1702.97 1054.99 1703.56 1055.34C1704.14 1055.67 1704.8 1055.84 1705.54 1055.84ZM1715.64 1057L1711.68 1046.5H1713.04L1716.64 1056.24H1716.02L1719.72 1046.5H1720.94L1724.6 1056.24H1723.98L1727.64 1046.5H1728.94L1724.96 1057H1723.62L1720.1 1047.84H1720.52L1716.98 1057H1715.64ZM1735.25 1057.1C1734.16 1057.1 1733.2 1056.87 1732.37 1056.42C1731.54 1055.95 1730.9 1055.32 1730.43 1054.52C1729.96 1053.71 1729.73 1052.78 1729.73 1051.74C1729.73 1050.7 1729.95 1049.78 1730.39 1048.98C1730.84 1048.18 1731.46 1047.55 1732.23 1047.1C1733.02 1046.63 1733.9 1046.4 1734.87 1046.4C1735.86 1046.4 1736.73 1046.63 1737.49 1047.08C1738.26 1047.52 1738.87 1048.15 1739.31 1048.96C1739.75 1049.76 1739.97 1050.69 1739.97 1051.74C1739.97 1051.81 1739.96 1051.88 1739.95 1051.96C1739.95 1052.03 1739.95 1052.1 1739.95 1052.18H1730.81V1051.12H1739.19L1738.63 1051.54C1738.63 1050.78 1738.46 1050.11 1738.13 1049.52C1737.81 1048.92 1737.37 1048.45 1736.81 1048.12C1736.25 1047.79 1735.6 1047.62 1734.87 1047.62C1734.15 1047.62 1733.5 1047.79 1732.93 1048.12C1732.36 1048.45 1731.91 1048.92 1731.59 1049.52C1731.27 1050.12 1731.11 1050.81 1731.11 1051.58V1051.8C1731.11 1052.6 1731.28 1053.31 1731.63 1053.92C1731.99 1054.52 1732.48 1054.99 1733.11 1055.34C1733.75 1055.67 1734.48 1055.84 1735.29 1055.84C1735.93 1055.84 1736.52 1055.73 1737.07 1055.5C1737.63 1055.27 1738.11 1054.93 1738.51 1054.46L1739.31 1055.38C1738.84 1055.94 1738.26 1056.37 1737.55 1056.66C1736.86 1056.95 1736.09 1057.1 1735.25 1057.1ZM1742.86 1057V1046.5H1744.22V1049.36L1744.08 1048.86C1744.37 1048.06 1744.87 1047.45 1745.56 1047.04C1746.25 1046.61 1747.11 1046.4 1748.14 1046.4V1047.78C1748.09 1047.78 1748.03 1047.78 1747.98 1047.78C1747.93 1047.77 1747.87 1047.76 1747.82 1047.76C1746.71 1047.76 1745.85 1048.1 1745.22 1048.78C1744.59 1049.45 1744.28 1050.4 1744.28 1051.64V1057H1742.86ZM1755.09 1057.1C1754 1057.1 1753.04 1056.87 1752.21 1056.42C1751.39 1055.95 1750.74 1055.32 1750.27 1054.52C1749.81 1053.71 1749.57 1052.78 1749.57 1051.74C1749.57 1050.7 1749.79 1049.78 1750.23 1048.98C1750.69 1048.18 1751.3 1047.55 1752.07 1047.1C1752.86 1046.63 1753.74 1046.4 1754.71 1046.4C1755.7 1046.4 1756.57 1046.63 1757.33 1047.08C1758.11 1047.52 1758.71 1048.15 1759.15 1048.96C1759.59 1049.76 1759.81 1050.69 1759.81 1051.74C1759.81 1051.81 1759.81 1051.88 1759.79 1051.96C1759.79 1052.03 1759.79 1052.1 1759.79 1052.18H1750.65V1051.12H1759.03L1758.47 1051.54C1758.47 1050.78 1758.31 1050.11 1757.97 1049.52C1757.65 1048.92 1757.21 1048.45 1756.65 1048.12C1756.09 1047.79 1755.45 1047.62 1754.71 1047.62C1753.99 1047.62 1753.35 1047.79 1752.77 1048.12C1752.2 1048.45 1751.75 1048.92 1751.43 1049.52C1751.11 1050.12 1750.95 1050.81 1750.95 1051.58V1051.8C1750.95 1052.6 1751.13 1053.31 1751.47 1053.92C1751.83 1054.52 1752.33 1054.99 1752.95 1055.34C1753.59 1055.67 1754.32 1055.84 1755.13 1055.84C1755.77 1055.84 1756.37 1055.73 1756.91 1055.5C1757.47 1055.27 1757.95 1054.93 1758.35 1054.46L1759.15 1055.38C1758.69 1055.94 1758.1 1056.37 1757.39 1056.66C1756.7 1056.95 1755.93 1057.1 1755.09 1057.1ZM1766.88 1057.1C1765.88 1057.1 1764.98 1056.87 1764.18 1056.42C1763.4 1055.97 1762.78 1055.34 1762.32 1054.54C1761.87 1053.73 1761.64 1052.79 1761.64 1051.74C1761.64 1050.67 1761.87 1049.74 1762.32 1048.94C1762.78 1048.14 1763.4 1047.52 1764.18 1047.08C1764.98 1046.63 1765.88 1046.4 1766.88 1046.4C1767.8 1046.4 1768.62 1046.61 1769.34 1047.02C1770.08 1047.43 1770.66 1048.04 1771.08 1048.84C1771.52 1049.63 1771.74 1050.59 1771.74 1051.74C1771.74 1052.87 1771.53 1053.84 1771.1 1054.64C1770.68 1055.44 1770.1 1056.05 1769.36 1056.48C1768.64 1056.89 1767.82 1057.1 1766.88 1057.1ZM1766.98 1055.84C1767.73 1055.84 1768.4 1055.67 1768.98 1055.34C1769.58 1054.99 1770.05 1054.51 1770.38 1053.9C1770.73 1053.27 1770.9 1052.55 1770.9 1051.74C1770.9 1050.91 1770.73 1050.19 1770.38 1049.58C1770.05 1048.97 1769.58 1048.49 1768.98 1048.16C1768.4 1047.81 1767.73 1047.64 1766.98 1047.64C1766.25 1047.64 1765.59 1047.81 1765 1048.16C1764.42 1048.49 1763.95 1048.97 1763.6 1049.58C1763.26 1050.19 1763.08 1050.91 1763.08 1051.74C1763.08 1052.55 1763.26 1053.27 1763.6 1053.9C1763.95 1054.51 1764.42 1054.99 1765 1055.34C1765.59 1055.67 1766.25 1055.84 1766.98 1055.84ZM1770.94 1057V1053.84L1771.08 1051.72L1770.88 1049.6V1042.16H1772.3V1057H1770.94ZM1781.79 1057V1043H1787.83C1789.39 1043 1790.6 1043.31 1791.45 1043.94C1792.32 1044.57 1792.75 1045.45 1792.75 1046.6C1792.75 1047.36 1792.57 1048 1792.21 1048.52C1791.87 1049.04 1791.39 1049.43 1790.77 1049.7C1790.17 1049.97 1789.51 1050.1 1788.79 1050.1L1789.13 1049.62C1790.03 1049.62 1790.79 1049.76 1791.43 1050.04C1792.09 1050.31 1792.59 1050.71 1792.95 1051.26C1793.31 1051.79 1793.49 1052.46 1793.49 1053.26C1793.49 1054.45 1793.05 1055.37 1792.17 1056.02C1791.31 1056.67 1789.99 1057 1788.23 1057H1781.79ZM1783.27 1055.78H1788.21C1789.44 1055.78 1790.38 1055.57 1791.03 1055.16C1791.69 1054.73 1792.01 1054.06 1792.01 1053.14C1792.01 1052.23 1791.69 1051.57 1791.03 1051.16C1790.38 1050.73 1789.44 1050.52 1788.21 1050.52H1783.11V1049.3H1787.73C1788.85 1049.3 1789.72 1049.09 1790.33 1048.66C1790.96 1048.23 1791.27 1047.6 1791.27 1046.76C1791.27 1045.91 1790.96 1045.27 1790.33 1044.86C1789.72 1044.43 1788.85 1044.22 1787.73 1044.22H1783.27V1055.78ZM1796.65 1060.98C1796.16 1060.98 1795.68 1060.9 1795.23 1060.74C1794.79 1060.58 1794.41 1060.34 1794.09 1060.02L1794.75 1058.96C1795.02 1059.21 1795.3 1059.41 1795.61 1059.54C1795.93 1059.69 1796.28 1059.76 1796.67 1059.76C1797.14 1059.76 1797.54 1059.63 1797.87 1059.36C1798.22 1059.11 1798.54 1058.65 1798.85 1058L1799.53 1056.46L1799.69 1056.24L1804.01 1046.5H1805.41L1800.15 1058.26C1799.86 1058.94 1799.53 1059.48 1799.17 1059.88C1798.82 1060.28 1798.44 1060.56 1798.03 1060.72C1797.62 1060.89 1797.16 1060.98 1796.65 1060.98ZM1799.45 1057.3L1794.61 1046.5H1796.09L1800.37 1056.14L1799.45 1057.3ZM1807.71 1048.58C1807.41 1048.58 1807.16 1048.47 1806.95 1048.26C1806.75 1048.05 1806.65 1047.79 1806.65 1047.48C1806.65 1047.16 1806.75 1046.9 1806.95 1046.7C1807.16 1046.5 1807.41 1046.4 1807.71 1046.4C1808 1046.4 1808.25 1046.5 1808.45 1046.7C1808.66 1046.9 1808.77 1047.16 1808.77 1047.48C1808.77 1047.79 1808.66 1048.05 1808.45 1048.26C1808.25 1048.47 1808 1048.58 1807.71 1048.58ZM1807.71 1057.1C1807.41 1057.1 1807.16 1056.99 1806.95 1056.78C1806.75 1056.57 1806.65 1056.31 1806.65 1056C1806.65 1055.68 1806.75 1055.42 1806.95 1055.22C1807.16 1055.02 1807.41 1054.92 1807.71 1054.92C1808 1054.92 1808.25 1055.02 1808.45 1055.22C1808.66 1055.42 1808.77 1055.68 1808.77 1056C1808.77 1056.31 1808.66 1056.57 1808.45 1056.78C1808.25 1056.99 1808 1057.1 1807.71 1057.1Z" fill="white"/>
</g>
</g>
<defs>
<filter id="filter0_f_577_26323" x="496" y="-1565" width="2314" height="2314" filterUnits="userSpaceOnUse" color-interpolation-filters="sRGB">
<feFlood flood-opacity="0" result="BackgroundImageFix"/>
<feBlend mode="normal" in="SourceGraphic" in2="BackgroundImageFix" result="shape"/>
<feGaussianBlur stdDeviation="201" result="effect1_foregroundBlur_577_26323"/>
</filter>
<filter id="filter1_d_577_26323" x="1683.46" y="1042.16" width="213.165" height="26.8201" filterUnits="userSpaceOnUse" color-interpolation-filters="sRGB">
<feFlood flood-opacity="0" result="BackgroundImageFix"/>
<feColorMatrix in="SourceAlpha" type="matrix" values="0 0 0 0 0 0 0 0 0 0 0 0 0 0 0 0 0 0 127 0" result="hardAlpha"/>
<feOffset dy="4"/>
<feGaussianBlur stdDeviation="2"/>
<feComposite in2="hardAlpha" operator="out"/>
<feColorMatrix type="matrix" values="0 0 0 0 0 0 0 0 0 0 0 0 0 0 0 0 0 0 0.25 0"/>
<feBlend mode="normal" in2="BackgroundImageFix" result="effect1_dropShadow_577_26323"/>
<feBlend mode="normal" in="SourceGraphic" in2="effect1_dropShadow_577_26323" result="shape"/>
</filter>
<linearGradient id="paint0_linear_577_26323" x1="598" y1="80.0002" x2="5852" y2="4930" gradientUnits="userSpaceOnUse">
<stop stop-color="#152243"/>
<stop offset="1" stop-color="white"/>
</linearGradient>
<clipPath id="clip0_577_26323">
<rect width="1920" height="1080" fill="white"/>
</clipPath>
</defs>
</svg>
