<svg width="64" height="64" viewBox="0 0 64 64" fill="none" xmlns="http://www.w3.org/2000/svg">
<circle cx="32" cy="32" r="32" fill="#F5B1B1"/>
<mask id="mask0_77_140" style="mask-type:alpha" maskUnits="userSpaceOnUse" x="0" y="0" width="64" height="64">
<circle cx="32" cy="32" r="32" fill="url(#paint0_linear_77_140)"/>
</mask>
<g mask="url(#mask0_77_140)">
<path d="M19.5224 68L14 35L51 36L45.4776 68L43.8209 63L41.0597 75L25.597 74L20.0746 60L19.5224 68Z" fill="#736749"/>
<path d="M34.3795 61.459L36.0903 70.4409" stroke="white" stroke-linecap="round"/>
<path fill-rule="evenodd" clip-rule="evenodd" d="M35.8866 53.1913C37.6969 52.7527 41.4987 52.4895 42.2228 54.9459C42.947 57.4023 41.9211 58.6012 41.3176 58.8936C44.7875 61.3793 51.2746 68.2806 49.4642 76.0007H31.8132V54.9459L35.8866 53.1913ZM27.7399 53.1915C25.9295 52.7529 22.1278 52.4897 21.4036 54.9461C20.6795 57.4025 21.7054 58.6014 22.3088 58.8938C18.839 61.3795 12.3519 68.2808 14.1622 76.0009H31.8132V54.9461L27.7399 53.1915Z" fill="#7E3989"/>
<path d="M34.3794 63.1697L42.0782 58.4648L42.9336 60.1757L34.3794 63.1697Z" fill="#1D1D1D"/>
<mask id="mask1_77_140" style="mask-type:alpha" maskUnits="userSpaceOnUse" x="13" y="52" width="37" height="25">
<path fill-rule="evenodd" clip-rule="evenodd" d="M35.8866 53.1913C37.6969 52.7527 41.4987 52.4895 42.2228 54.9459C42.947 57.4023 41.9211 58.6012 41.3176 58.8936C44.7875 61.3793 51.2746 68.2806 49.4642 76.0007H31.8132V54.9459L35.8866 53.1913ZM27.7399 53.1915C25.9295 52.7529 22.1278 52.4897 21.4036 54.9461C20.6795 57.4025 21.7054 58.6014 22.3088 58.8938C18.839 61.3795 12.3519 68.2808 14.1622 76.0009H31.8132V54.9461L27.7399 53.1915Z" fill="white"/>
</mask>
<g mask="url(#mask1_77_140)">
<path d="M29.247 63.1697L21.5482 58.4648L20.6927 60.1757L29.247 63.1697Z" fill="#1D1D1D"/>
</g>
<path d="M29.247 61.8857L27.5361 70.8677" stroke="white" stroke-linecap="round"/>
<path d="M30.0289 45.8004C32.4113 47.1586 34.7321 46.6645 36.2887 44.9667" stroke="#EB5757" stroke-linecap="round"/>
<path d="M21.2017 25.7461C22.3412 26.1222 25.456 27.1502 28.7986 28.2534" stroke="#152243" stroke-linecap="round"/>
<rect x="25.8253" y="41.7832" width="11.9759" height="17.9639" rx="5.98795" fill="#F5B1B1"/>
<path d="M43.7891 31.5182C43.7891 35.2977 44.5677 38.7893 47.6385 38.7893C50.7093 38.7893 53.6265 34.4422 53.6265 30.6628C53.6265 26.8833 52.4202 24.6748 49.3494 24.6748C46.2785 24.6748 43.7891 27.7387 43.7891 31.5182Z" fill="#F5B1B1"/>
<path d="M19.8373 31.5192C19.8373 35.2986 19.0588 38.7902 15.988 38.7902C12.9171 38.7902 10 34.4432 10 30.6637C10 26.8842 11.2063 24.6758 14.2771 24.6758C17.3479 24.6758 19.8373 27.7397 19.8373 31.5192Z" fill="#F5B1B1"/>
<rect x="14.7048" y="10.1328" width="34.2169" height="41.9157" rx="17.1084" fill="#FFD9CB"/>
<circle cx="24.259" cy="32.374" r="2" fill="#152243"/>
<circle cx="39.259" cy="32.374" r="2" fill="#6A3851"/>
<path d="M34.3795 24.2478C35.6626 23.1072 39.1699 21.5104 42.9337 24.2478" stroke="#6A3851" stroke-linecap="round"/>
<path d="M34.5155 40.3441C32.852 30.4433 24.8121 19.2322 21 14.8642C24.6388 8.31222 34.5155 -1.58853 44.912 11.2242C55.3086 24.037 52.0163 44.2267 49.0706 52.72C49.2439 46.1681 49.4865 34.8113 49.0706 41.8001C48.6548 48.7889 45.0853 56.8453 43.3525 60L39.1939 46.1681V52.72L34.5155 34.5201V40.3441Z" fill="#736749"/>
<path d="M17.387 77.4275C14.6657 53.4493 20.1793 30.8738 23.2763 22.5833L31.9376 5.01273C6.20858 5.95893 11.2758 60.9556 17.0256 88.3356L14.7901 58.2762L17.387 77.4275Z" fill="#736749"/>
</g>
<defs>
<linearGradient id="paint0_linear_77_140" x1="32" y1="0" x2="32" y2="64" gradientUnits="userSpaceOnUse">
<stop stop-color="#FFC1C2"/>
<stop offset="1" stop-color="#E97C7C"/>
</linearGradient>
</defs>
</svg>
